<svg version="1" xmlns="http://www.w3.org/2000/svg" width="736" height="736" viewBox="0 0 552.000000 552.000000"><path d="M244.4 20.7c-3.1 5.4-7.5 12.9-9.7 16.6-2.5 4.2-4.5 6.6-5.3 6.3-.7-.3-8.2-5.7-16.7-12-8.4-6.4-15.6-11.6-16-11.6-.3 0-3.8 8.2-7.7 18.2-3.9 10.1-7.3 18.4-7.4 18.5-.2.2-7.7-3-16.7-7.1-11.4-5.3-16.6-7.1-17-6.3-.3.7-1.9 9-3.4 18.5l-2.8 17.4-2.6-.5c-11.8-2.3-37.1-6-37.6-5.5-.6.6.7 20.5 2.1 33.4l.5 5.1-19.3.8c-10.6.4-19.5.9-19.7 1.1-.2.2 1.3 8.8 3.3 19.2 2 10.5 3.6 19.4 3.6 19.9 0 .6-8 2.3-17.7 3.8-9.8 1.5-18.6 3.1-19.5 3.4-1.5.5-.6 3.2 6.8 19.6 4.6 10.4 8.3 19.4 8.1 19.9-.2.5-8.4 4-18.2 7.8-9.9 3.8-18.1 7.1-18.3 7.3-.2.2 4.6 7.8 10.8 16.8l11.2 16.5-3.8 3.5c-2.2 1.9-10 8.7-17.4 15.1C6.6 272.9.5 278.5.5 278.9c0 .7 47.3 45.6 48.2 45.6.2 0 1.6-3.2 2.9-7 6-17.3 15.1-32.1 27.6-45.1 10.3-10.8 18.7-17.1 30.9-23.4 18.8-9.7 36.4-14 57.5-14 19.5 0 36.2 3.9 52.8 12.2 10.7 5.4 15.5 8.7 24.4 17.2 13.2 12.6 22.3 26.7 28.2 43.9 1.6 4.7 3.1 7.6 3.4 6.7.3-.8 1.7-4.9 3.2-9 11.9-33.7 39.1-58.2 75.2-67.7 12.9-3.4 36.2-4.3 49.8-1.9 17.6 3 35.6 10.2 49.9 19.9 7.2 4.9 20.9 17.9 26.4 25.1 7 9 13.9 21.5 18.3 32.7l4.1 10.8 9.3-8.7c5.1-4.8 16-15 24.2-22.7 8.3-7.7 14.9-14.3 14.9-14.6-.1-.4-7.8-7.3-17.2-15.5-9.3-8.1-16.9-15.3-16.9-16 .1-.7 4.9-8.2 10.8-16.7 5.8-8.6 10.6-15.7 10.6-15.9 0-.3-8.2-3.5-18.1-7.4-10-3.8-18.3-7.4-18.5-8-.3-.5 3.3-9.5 8-20 7.1-16 8.1-19 6.7-19.5-.9-.3-9.6-1.8-19.3-3.4-15-2.3-17.8-3-17.8-4.5 0-.9 1.6-9.5 3.5-19s3.5-17.9 3.5-18.5c0-.9-5.3-1.5-19.6-2l-19.5-.7.5-6.2c1.8-17.9 2.6-31.9 2.1-32.5-.4-.3-9.4.9-20.2 2.7-10.7 1.9-19.6 3.2-19.8 3-.2-.2-1.7-8.4-3.4-18.2-1.7-9.8-3.1-18-3.3-18.1-.2-.2-7.7 3-16.7 7.1s-16.5 7.3-16.8 7.1c-.2-.2-3.4-8.4-7.3-18.2-3.8-9.7-7.1-17.9-7.4-18.2-.3-.3-8.1 5.1-17.3 12l-16.7 12.5-9.4-16.2c-5.1-8.8-9.7-16.4-10.1-16.8-.4-.5-6.3 5.3-13.1 12.7-6.8 7.4-12.6 13.5-13 13.5-.4 0-6.2-6.1-13-13.5S250.5 11 250.3 11c-.1 0-2.7 4.4-5.9 9.7zM211.5 333.5c-7.6 2.7-14.5 12.7-14.5 21.2 0 8 5.8 16.8 13.5 20.4 11 5.1 24.8-1.1 29-13 3-8.7 1.2-16.3-5.5-23.2-6.4-6.7-13.9-8.4-22.5-5.4zm18.3 12.7c.7.7 1.2 2.4 1.2 3.8s-.5 3.1-1.2 3.8c-.7.7-2.4 1.2-3.8 1.2s-3.1-.5-3.8-1.2c-.7-.7-1.2-2.4-1.2-3.8s.5-3.1 1.2-3.8c.7-.7 2.4-1.2 3.8-1.2s3.1.5 3.8 1.2zM325.2 333.1c-4.6 1.4-11.5 8.5-13 13.5-2.9 9.7-.5 18.4 6.7 24.6 7.3 6.2 16.2 7.1 24.6 2.3 7-4 10.6-10.5 10.6-19.1 0-15.7-13.6-25.7-28.9-21.3zm19.4 14.4c1.5 2.3 1.5 2.7 0 5-1.1 1.7-2.6 2.5-4.4 2.5-3.5 0-5.2-1.6-5.2-5s1.7-5 5.2-5c1.8 0 3.3.8 4.4 2.5zM268.7 505c-4.7 1.2-11.5 4.6-14.4 7.3-5.1 4.6-1.2 17.8 6.8 23.7 5.6 4 10.1 5.3 16.9 4.8 8-.6 14.4-4.6 18.8-11.8 2.4-4 3.2-6.6 3.2-10 0-4.4-.3-4.9-4.5-7.9-7.6-5.5-18.8-8-26.8-6.1z"/></svg>